<svg width="51" height="34" viewBox="0 0 51 34" fill="none" xmlns="http://www.w3.org/2000/svg">
<rect width="51" height="34" fill="#E5E5E5"/>
<path d="M48.6727 15.2013C48.7747 14.8672 48.7422 14.5066 48.5823 14.1961L47.5771 12.4237C47.423 12.149 47.6542 11.7536 47.4665 11.509L46.1599 9.15026C45.9722 8.88892 45.6439 8.48016 45.4294 8.23222L43.1075 5.55181C42.8329 5.26429 42.5082 5.02926 42.1493 4.85825L40.4372 4.11779C40.1222 3.98042 39.6062 3.76598 39.2879 3.63866L36.5506 2.55645C36.1632 2.40685 35.7684 2.27713 35.3678 2.16779L32.7377 1.47758C32.4026 1.39047 31.8599 1.2665 31.5214 1.20284L28.4457 0.61985C28.0433 0.554085 27.637 0.516023 27.2294 0.505932L24.214 0.43222C23.8789 0.43222 23.3227 0.43222 22.9877 0.43222H19.9722C19.5668 0.439887 19.162 0.467843 18.7593 0.515983L15.7606 1.11908C15.4256 1.16263 14.8995 1.2531 14.5745 1.32011L12.0516 1.83944C11.6732 1.92356 11.3056 2.05058 10.956 2.21805L8.39285 3.5214C8.1114 3.66547 7.64903 3.8933 7.36424 4.03067L5.68898 4.8348C5.36591 4.99999 5.0789 5.22778 4.84465 5.5049L2.99517 7.91727C2.81424 8.14846 2.54285 8.54717 2.38872 8.79511L1.71862 9.90077C1.5645 10.1521 1.34671 11.576 1.2328 11.8508L0.488982 13.6098C0.434786 13.7698 0.41425 13.9394 0.428664 14.1077C0.443079 14.2761 0.492131 14.4396 0.572745 14.5881L1.16579 15.5933L1.74878 16.5783L2.34517 17.5835C2.50264 17.8549 2.72378 17.8582 2.83099 17.5835L3.47764 15.9518C3.60967 15.6298 3.76186 15.3165 3.93331 15.0137L4.5096 14.0085C4.69855 13.7065 4.92358 13.4286 5.1797 13.1809L6.73099 11.767C7.00748 11.5175 7.30575 11.2932 7.62223 11.0969L9.08305 10.2325C9.40877 10.0419 9.74428 9.86852 10.0882 9.71315L12.3833 8.70799C12.7438 8.55849 13.1158 8.43859 13.4957 8.34949L15.7606 7.85361C16.0957 7.78325 16.6117 7.67603 16.9333 7.61907L19.6305 7.1299C20.0389 7.07287 20.451 7.046 20.8635 7.04949H23.5874C23.9225 7.04949 24.4787 7.04949 24.8171 7.04949L27.4975 7.09304C27.9089 7.10655 28.3188 7.15023 28.7238 7.22371L31.4913 7.76315C31.8263 7.82681 32.3758 7.94407 32.7109 8.02449L35.006 8.56727C35.4042 8.67732 35.7939 8.81617 36.172 8.98273L38.6212 10.0281C38.9361 10.1621 39.4354 10.4101 39.7302 10.5776L41.3016 11.4856C41.6518 11.6854 41.9876 11.9093 42.3068 12.1557L44.106 13.6198C44.4052 13.875 44.6739 14.164 44.9068 14.4809L45.5769 15.466C45.7578 15.7273 46.0258 16.1662 46.1766 16.4443L47.0611 18.0928C47.2086 18.3675 47.4163 18.3709 47.5202 18.0928L47.8954 17.1245C48.0026 16.8531 48.1735 16.4108 48.2774 16.1428L48.6727 15.2013Z" fill="#0E68AB"/>
<path d="M43.3588 28.9686C43.6861 28.7918 43.9929 28.5795 44.2735 28.3353L45.7042 27.0253C45.966 26.777 46.2112 26.5118 46.438 26.2312L47.9423 24.3113C48.1427 24.0292 48.2757 23.7048 48.331 23.3631L48.5052 21.775C48.5354 21.4869 48.589 21.0111 48.6191 20.7229L48.7934 19.1348C48.8269 18.8467 48.8537 18.3709 48.857 18.076V16.5046C48.857 16.2098 48.857 15.7307 48.857 15.4392V13.6735C48.7565 12.9162 48.8369 13.5461 48.8135 13.8577L48.666 15.4057C48.6392 15.6972 48.4784 16.0758 48.4516 16.3807L48.4148 16.4912C48.366 16.8332 48.2311 17.1572 48.0227 17.4327L46.4514 19.3325C46.2171 19.6076 45.964 19.8662 45.6941 20.1064L44.1931 21.3997C43.9215 21.6352 43.6262 21.8418 43.3119 22.0162L40.2965 23.5072C39.948 23.6751 39.5887 23.8195 39.2209 23.9394L36.2256 24.8742C35.8467 24.9878 35.462 25.0806 35.073 25.1523L31.1261 25.8224C30.728 25.8876 30.3263 25.929 29.9233 25.9464L25.9428 26.0838C25.6078 26.0838 25.055 26.0838 24.7166 26.0637L20.7361 25.8124C20.3237 25.7804 19.9133 25.7267 19.5065 25.6515L15.439 24.8474C15.1039 24.7804 14.5611 24.6397 14.2361 24.5358L11.1972 23.5541C10.8028 23.4238 10.4168 23.2694 10.0413 23.0918L6.85831 21.5539C6.49412 21.3711 6.14851 21.1534 5.82635 20.9039L4.22815 19.6139C3.91948 19.3592 3.6253 19.0873 3.34697 18.7997L1.54439 16.8967C1.29773 16.6201 1.11677 16.2914 1.01501 15.9351L0.924543 15.6838C0.857533 15.3923 0.693358 15.0137 0.629698 14.7389L0.257791 13.2379C0.19078 12.943 0.170678 12.9464 0.214234 13.2379L0.606245 17.1278L0.763719 18.2L1.32325 22.0129C1.39929 22.3714 1.56927 22.7033 1.81578 22.9745L4.06398 25.283C4.29181 25.5175 4.69052 25.8794 4.94851 26.0905L7.01243 27.7657C7.32818 28.0168 7.66441 28.2409 8.01758 28.4358L11.0565 30.0173C11.4253 30.2033 11.8045 30.3678 12.1923 30.5098L15.0771 31.5351C15.4689 31.6702 15.8683 31.782 16.2733 31.8701L20.2101 32.6675C20.6169 32.7436 21.0273 32.7984 21.4398 32.8317L25.2895 33.083C25.6245 33.1064 26.1807 33.1131 26.5158 33.083L30.3622 32.9188C30.7643 32.8979 31.1648 32.8531 31.5617 32.7848L35.3779 32.1013C35.7656 32.0246 36.1491 31.9284 36.5271 31.8131L39.3985 30.8851C39.7624 30.7608 40.1182 30.6142 40.464 30.4461L43.3588 28.9686Z" fill="#ABAE01"/>
<path d="M43.141 26.4992C43.0136 26.5528 42.9098 26.4423 42.9165 26.2513C42.9232 26.0603 42.9165 25.7521 42.9165 25.5644C42.9149 25.4765 42.9359 25.3896 42.9775 25.3122C43.0192 25.2347 43.0801 25.1693 43.1544 25.1222L43.6167 24.9312C43.85 24.8061 44.0671 24.6531 44.2634 24.4755L45.5232 23.3732C45.7916 23.1322 46.0414 22.8713 46.2703 22.5925L47.6105 20.8972C47.7948 20.666 47.9456 20.6325 47.9456 20.8201C47.9456 21.0077 47.9456 21.3193 47.9456 21.5103C47.9021 21.7897 47.7867 22.053 47.6105 22.2742L46.2703 23.9696C46.0402 24.2484 45.7893 24.5093 45.5198 24.7503L44.26 25.8526C44.0639 26.0288 43.8481 26.1818 43.6167 26.3082L43.141 26.4992Z" fill="#005B96"/>
<path d="M2.18426 20.4448C2.1407 20.2639 2.29482 20.3108 2.51931 20.5454L4.04379 22.0899C4.27163 22.3245 4.67369 22.6863 4.93168 22.8974L6.29534 23.9964C6.51079 24.1799 6.74559 24.3395 6.9956 24.4722L7.45462 24.6631C7.53382 24.7115 7.60212 24.7758 7.65518 24.8519C7.70824 24.928 7.74491 25.0144 7.76287 25.1054C7.80977 25.293 7.88013 25.6046 7.92704 25.7755C7.97395 25.9464 7.89019 26.067 7.75282 26.0067L7.24354 25.7755C6.98861 25.6316 6.74747 25.4644 6.52318 25.2763L5.19972 24.184C4.8946 23.9347 4.60271 23.6697 4.32524 23.3899L2.83426 21.8521C2.62026 21.6371 2.45263 21.3805 2.34173 21.0982L2.18426 20.4448Z" fill="#005B96"/>
<path d="M29.1928 30.5601C28.8577 30.5969 28.5729 30.4696 28.5528 30.2786L28.4791 29.5918C28.459 29.4008 28.717 29.2198 29.0487 29.183L31.5314 28.9284C31.8665 28.8915 32.3959 28.8111 32.7209 28.7474L35.2002 28.2448C35.5353 28.1778 36.0412 28.0572 36.3562 27.9701L36.5371 27.9232C36.852 27.8361 37.3479 27.6686 37.6428 27.5479L37.874 27.4541C38.1688 27.3335 38.4167 27.3871 38.4268 27.5781C38.4368 27.7691 38.4469 28.0773 38.4569 28.2482C38.467 28.4191 38.2291 28.6905 37.9343 28.8144L37.7031 28.9083C37.4082 29.0289 36.909 29.1964 36.5941 29.2835L36.4165 29.3304C36.1015 29.4175 35.5822 29.5381 35.2572 29.6052L32.8214 30.1044C32.4863 30.1714 31.9636 30.2518 31.6319 30.2887L29.1928 30.5601Z" fill="#005B96"/>
<path d="M12.5642 27.883C12.6239 28.0185 12.7109 28.1403 12.8199 28.2406C12.9289 28.3409 13.0574 28.4176 13.1974 28.466L13.4252 28.5631C13.7603 28.6938 14.2696 28.8781 14.6013 28.9753L14.7621 29.0222C15.0971 29.1193 15.6332 29.2601 15.9683 29.3338L18.4845 29.9101C18.8893 29.9979 19.2987 30.0628 19.7108 30.1044L22.1533 30.3155C22.4884 30.3456 22.7531 30.215 22.733 30.024L22.6593 29.3371C22.6392 29.1461 22.3477 28.9719 21.9892 28.9451L19.5232 28.7508C19.1112 28.7165 18.7017 28.6572 18.2969 28.5732L15.7438 28.0204C15.4087 27.95 14.866 27.8026 14.541 27.6853L14.3667 27.6317C14.0317 27.5278 13.5157 27.3301 13.2041 27.1894L12.9595 27.0822C12.6446 26.9448 12.4167 26.985 12.4469 27.176C12.477 27.367 12.534 27.6954 12.5642 27.883Z" fill="#005B96"/>
<path d="M48.857 16.2869C48.857 16.4678 48.7698 16.3673 48.599 16.1026L48.3845 15.7675L47.758 14.7992L47.5436 14.4642C47.3789 14.222 47.2744 13.944 47.2387 13.6534C47.2387 13.4758 47.2387 13.1809 47.2588 13.0034C47.2789 12.8258 47.4028 12.8995 47.567 13.1675L47.7647 13.5026L48.3644 14.4809L48.5588 14.816C48.7177 15.0633 48.8248 15.3403 48.8737 15.6302C48.8804 15.791 48.8503 16.1093 48.857 16.2869Z" fill="#005B96"/>
<path d="M0.67654 14.2028C0.544031 14.4466 0.485793 14.7238 0.509014 15.0003L0.666488 15.6503C0.710045 15.8278 0.847416 15.7608 0.974736 15.4995L1.12551 15.1879L1.58788 14.2363L1.73865 13.9247C1.86335 13.6768 1.92328 13.4013 1.91288 13.124C1.88273 12.9464 1.82912 12.6549 1.79896 12.474C1.76881 12.293 1.63144 12.3601 1.49742 12.618L1.32989 12.9531L0.844066 13.8912L0.67654 14.2028Z" fill="#005B96"/>
<path d="M9.13659 6.8518C9.15642 6.92903 9.14968 7.01067 9.11747 7.0836C9.08526 7.15654 9.02945 7.21651 8.95902 7.25387L8.49329 7.40799C8.2407 7.50778 7.9955 7.62534 7.75953 7.75979L6.35231 8.53376C6.03382 8.72043 5.73225 8.93456 5.45103 9.17371L3.94999 10.4871C3.72216 10.6881 3.51108 10.7015 3.47757 10.524L3.367 9.87397C3.37526 9.74347 3.41121 9.61622 3.47244 9.50068C3.53368 9.38514 3.6188 9.28396 3.72216 9.20387L5.22319 7.88711C5.50335 7.64415 5.80375 7.42557 6.12113 7.23376L7.5317 6.45979C7.76669 6.3305 8.01081 6.21852 8.26211 6.12474L8.74123 5.96727C8.8719 5.92706 9.00257 6.03763 9.03273 6.21521C9.06288 6.39278 9.11314 6.67423 9.13659 6.8518Z" fill="#005B96"/>
<path d="M20.9304 4.35232C21.2655 4.32216 21.5201 4.15799 21.5033 3.99046L21.4363 3.38067C21.4363 3.20979 21.1314 3.09588 20.7997 3.12603L19.0106 3.28686C18.6755 3.31701 18.1428 3.39742 17.8211 3.46443L16.0286 3.84304C15.6935 3.91005 15.1742 4.00052 14.8459 4.04742H14.8325L13.6363 4.20825C13.3013 4.25515 13.0634 4.42938 13.0935 4.59691C13.1237 4.76443 13.1706 5.03917 13.2008 5.2067C13.2309 5.37423 13.5358 5.47809 13.8374 5.43118L15.0067 5.26701C15.3417 5.2201 15.8544 5.12629 16.176 5.05928L17.9686 4.68067C18.3036 4.61366 18.8229 4.53325 19.158 4.50309L20.9304 4.35232Z" fill="#005B96"/>
<path d="M34.7948 5.79974C34.7948 5.97062 34.5368 6.02423 34.2085 5.92036H34.175L32.9856 5.54845H32.9487C32.6136 5.44459 32.0809 5.30051 31.7459 5.2134L29.9098 4.78118C29.5747 4.70412 29.0252 4.61031 28.6868 4.5701L26.8943 4.36572C26.5593 4.32887 26.2644 4.16804 26.2477 4.01057L26.1874 3.43763C26.1874 3.28016 26.4319 3.17629 26.7737 3.20979L28.5997 3.39407C28.9348 3.42758 29.491 3.51469 29.826 3.58505L31.7057 3.98711C32.0407 4.06082 32.5835 4.20155 32.9118 4.30541H32.9453L34.1381 4.67732H34.1716C34.5067 4.78119 34.7714 5.01237 34.7781 5.16984C34.7848 5.32732 34.7881 5.63222 34.7948 5.79974Z" fill="#005B96"/>
<path d="M50.4049 23.3531C50.2135 23.0178 49.9586 22.723 49.6544 22.4853L49.4935 22.368C49.1798 22.1428 48.8428 21.9519 48.4884 21.7985L47.7077 21.4902C47.5994 21.4447 47.4873 21.4089 47.3727 21.383C47.3224 21.383 47.1281 21.5606 46.9438 21.7918L46.3072 22.5925C46.0783 22.8713 45.8285 23.1322 45.56 23.3732L44.3002 24.4755C44.0331 24.6975 43.738 24.8833 43.4224 25.0284C43.2597 25.0839 43.1044 25.1593 42.96 25.2528C42.96 25.2729 43.0036 25.3232 43.0606 25.3668C43.2601 25.4863 43.4684 25.5905 43.6838 25.6784L44.4644 26.0134C44.7498 26.106 45.044 26.1689 45.3423 26.201L45.9789 26.2814C46.3841 26.3233 46.7921 26.33 47.1984 26.3015L47.7278 26.2546C48.1191 26.2134 48.5039 26.1245 48.8737 25.99L49.1417 25.8827C49.4853 25.7359 49.8067 25.542 50.0966 25.3064L50.1469 25.2629C50.3949 25.0335 50.5677 24.7345 50.6428 24.4052C50.6745 24.0599 50.612 23.7125 50.4618 23.4L50.4049 23.3531Z" fill="url(#paint0_radial_0_1)"/>
<path d="M7.69922 24.7938C7.62892 24.7356 7.54819 24.6912 7.46133 24.6631L7.00231 24.4722C6.75231 24.3395 6.5175 24.1799 6.30205 23.9964L4.93839 22.8974C4.6804 22.6863 4.26829 22.3245 4.05051 22.0899L3.24973 21.2791C3.01855 21.0446 2.82422 20.857 2.81417 20.857L2.56288 20.9407L1.79896 21.2088C1.46006 21.3416 1.14364 21.5258 0.860816 21.7549L0.726796 21.8755C0.468504 22.1151 0.258149 22.4016 0.10695 22.7198V22.7399C-0.0091655 23.0552 -0.0312796 23.3974 0.043291 23.725C0.166444 24.0663 0.371189 24.3722 0.639682 24.6162L0.69329 24.6665C1.00829 24.9224 1.35517 25.1364 1.72525 25.3031L2.04355 25.4338C2.42718 25.5824 2.82787 25.6826 3.23633 25.732L3.6853 25.7722C4.09165 25.8008 4.49971 25.7941 4.90489 25.7521L5.52138 25.675C5.81386 25.6408 6.10227 25.5779 6.38247 25.4874L7.09613 25.1791C7.284 25.1067 7.46369 25.0146 7.63221 24.9044C7.66906 24.8642 7.70257 24.8139 7.69922 24.7938Z" fill="url(#paint1_radial_0_1)"/>
<path d="M38.41 28.8211L38.0448 28.285C37.9187 28.0919 37.764 27.919 37.5858 27.7724C37.5374 27.7393 37.4826 27.7165 37.4249 27.7056C37.3673 27.6946 37.308 27.6957 37.2508 27.7088C37.1737 27.7423 36.8521 27.8361 36.5371 27.9232L36.3562 27.9701C36.0412 28.0572 35.5219 28.1778 35.2002 28.2448L32.7209 28.7474C32.3858 28.8111 31.8631 28.8915 31.5314 28.9283L29.883 29.0992C29.5479 29.1327 29.2765 29.2366 29.2698 29.3304C29.324 29.569 29.4204 29.796 29.5546 30.0005V30.0005L29.8897 30.5332C29.8897 30.5534 30.141 30.7309 30.4191 30.9219L30.7541 31.143C31.0964 31.3664 31.4657 31.5454 31.8531 31.6758L32.3858 31.8399C32.7811 31.9548 33.1879 32.0256 33.5987 32.051L34.2185 32.0778C34.6222 32.0865 35.0258 32.0596 35.4247 31.9974L35.9675 31.9036C36.3436 31.8253 36.7068 31.6945 37.0464 31.5149L37.3814 31.3173C37.689 31.1278 37.9584 30.8823 38.1755 30.5936L38.2559 30.4763C38.4356 30.1833 38.535 29.8482 38.5441 29.5046V29.5046C38.5424 29.2704 38.4969 29.0386 38.41 28.8211V28.8211Z" fill="url(#paint2_radial_0_1)"/>
<path d="M21.835 29.1763C21.8082 29.0423 21.5 28.9082 21.1649 28.8814L19.5232 28.7508C19.1112 28.7165 18.7017 28.6572 18.2969 28.5732L15.7438 28.0204C15.4088 27.95 14.866 27.8026 14.541 27.6853L14.3667 27.6317C14.0317 27.5278 13.7167 27.4173 13.6497 27.3871C13.5978 27.376 13.5441 27.3759 13.4922 27.3869C13.4402 27.3978 13.3912 27.4196 13.3482 27.4508C13.1947 27.5835 13.0645 27.7409 12.9629 27.9165L12.6647 28.4124C12.6084 28.6312 12.597 28.8591 12.6312 29.0825V29.1595C12.6901 29.5245 12.8373 29.8696 13.06 30.1647L13.1271 30.2485C13.3894 30.5451 13.697 30.7984 14.0384 30.999L14.3533 31.1698C14.7168 31.3664 15.1026 31.5183 15.5026 31.6222L16.0789 31.7428C16.4803 31.8222 16.8893 31.857 17.2984 31.8467L17.9116 31.8232C18.3098 31.7986 18.7048 31.7357 19.091 31.6356L19.5734 31.4982C19.9366 31.3877 20.2827 31.2276 20.602 31.0224L20.9069 30.8113C21.1007 30.6927 21.2757 30.5459 21.4263 30.3758L21.6742 29.843C21.7802 29.6368 21.8354 29.4082 21.835 29.1763Z" fill="url(#paint3_radial_0_1)"/>
<path d="M9.59226 7.95412C9.54649 7.74474 9.44721 7.5508 9.30412 7.39124L8.91546 7.05618C8.67972 6.8953 8.42405 6.76578 8.15489 6.67087C7.80394 6.54996 7.41986 6.56916 7.08272 6.72448L6.12113 7.23376C5.79975 7.41959 5.49486 7.63256 5.20978 7.87036L3.70875 9.18711C3.48092 9.38479 3.30334 9.59923 3.31674 9.66289C3.33015 9.72655 3.47757 9.83041 3.6518 9.89742C3.82305 9.96522 4.00029 10.0168 4.18118 10.0515L4.93839 10.1655C5.31857 10.2127 5.70267 10.2194 6.08427 10.1856L6.35231 10.1588C6.74802 10.1117 7.1399 10.0367 7.52499 9.93428L7.74948 9.87062C8.11727 9.76175 8.47053 9.60875 8.80154 9.41495L8.83169 9.39819C9.10527 9.23142 9.33502 9.00167 9.5018 8.72809C9.6042 8.48376 9.63556 8.21548 9.59226 7.95412V7.95412Z" fill="url(#paint4_radial_0_1)"/>
<path d="M20.6456 3.78608C20.5211 3.60736 20.3683 3.45007 20.1933 3.32036C19.9297 3.24026 19.6519 3.21854 19.3791 3.2567L19.0106 3.28685C18.6755 3.31701 18.1428 3.39742 17.8211 3.46443L16.0286 3.84304C15.6935 3.91005 15.1742 4.00386 14.8459 4.04742H14.8325L13.7972 4.18814C13.5593 4.22165 13.3482 4.28866 13.3314 4.33892C13.3563 4.4964 13.4184 4.6457 13.5124 4.77448C13.626 4.96131 13.7751 5.12408 13.9513 5.25361L14.4639 5.5585C14.7503 5.7021 15.0514 5.81443 15.3618 5.89356H15.4121C15.8145 5.98431 16.2234 6.04368 16.635 6.07113H16.9902C17.3971 6.08574 17.8045 6.07343 18.2098 6.03428L18.3907 6.01417C18.7792 5.96814 19.1599 5.87126 19.5232 5.72603L19.6505 5.66907C19.9549 5.52702 20.2379 5.3432 20.4915 5.12294C20.6474 4.97601 20.7628 4.79137 20.8265 4.58685L20.8802 4.2518C20.8377 4.08101 20.7576 3.92188 20.6456 3.78608V3.78608Z" fill="url(#paint5_radial_0_1)"/>
<path d="M33.9773 4.62706L32.942 4.29201H32.9085C32.5734 4.18814 32.0374 4.04742 31.7023 3.97371L29.8227 3.57165C29.4876 3.50129 28.9348 3.41417 28.5964 3.38067L28.2345 3.35722C27.9671 3.31697 27.6941 3.33411 27.4338 3.40747C27.2785 3.52954 27.1516 3.68387 27.0619 3.85979C26.9798 3.99226 26.923 4.13882 26.8943 4.29201L26.9747 4.62706C27.0704 4.8529 27.2242 5.04941 27.4204 5.19665C27.7179 5.41468 28.0367 5.60215 28.3719 5.75618L28.4356 5.78299C28.8153 5.93738 29.2108 6.04974 29.6149 6.11804L29.816 6.15154C30.2232 6.21164 30.634 6.24522 31.0456 6.25206H31.3103C31.7093 6.24265 32.106 6.1887 32.493 6.09124L32.7175 6.02758C32.9578 5.96707 33.1921 5.88522 33.4178 5.78299L33.8299 5.51495C34.004 5.39494 34.1521 5.24111 34.2655 5.06263C34.3492 4.90515 34.2185 4.71417 33.9773 4.62706Z" fill="url(#paint6_radial_0_1)"/>
<path d="M47.8552 10.008C47.7044 9.73325 47.4263 9.29768 47.242 9.03634L46.1866 7.57216C45.9468 7.25965 45.67 6.97728 45.3624 6.73118L43.3286 5.19665C42.9982 4.95147 42.6524 4.72764 42.2933 4.52655L40.4572 3.55155C40.1557 3.39072 39.6498 3.15954 39.3315 3.03222L36.6109 1.9634C36.219 1.81719 35.817 1.69961 35.408 1.6116L32.808 1.04536C32.473 0.97165 31.9235 0.861083 31.5851 0.797423L28.4658 0.214434C28.0605 0.142594 27.6508 0.0989311 27.2395 0.0837629L24.2139 0C23.8789 0 23.3227 0 22.9843 0L19.9688 0.0167536C19.5647 0.0247085 19.1616 0.0616584 18.7627 0.12732L15.7673 0.656702C15.4322 0.713661 14.9129 0.814176 14.5913 0.877836L12.0248 1.39381C11.6421 1.47902 11.266 1.59098 10.899 1.72887L8.31575 2.76417C7.96119 2.90889 7.61449 3.07218 7.27709 3.25335L5.57838 4.18479C5.25524 4.36908 4.94716 4.57858 4.65699 4.81134L2.86111 6.30232C2.59162 6.53794 2.35597 6.80967 2.16085 7.10979L1.26962 8.57397C1.09073 8.87817 0.927457 9.19129 0.780442 9.51211L0.167297 10.916C0.0469778 11.2365 0.00226077 11.5805 0.0366274 11.9211L0.257761 13.4523C0.315888 13.8108 0.395324 14.1654 0.495648 14.5144L0.96472 16.059C1.08977 16.4148 1.28327 16.7426 1.53431 17.024L3.33688 18.9271C3.61612 19.2127 3.91026 19.4833 4.21807 19.7379L5.81627 21.0278C6.13917 21.2773 6.48465 21.496 6.84823 21.6812L10.0312 23.2191C10.4074 23.3942 10.7933 23.5475 11.1871 23.6781L14.2261 24.6598C14.6211 24.7852 15.0226 24.8892 15.4289 24.9714L19.4964 25.7755C19.9029 25.8526 20.3134 25.9063 20.7261 25.9363L24.7065 26.191C25.0415 26.2111 25.5977 26.2178 25.9328 26.191L29.9098 26.0704C30.3129 26.053 30.7145 26.0116 31.1127 25.9464L35.0596 25.2763C35.4485 25.2046 35.8333 25.1117 36.2121 24.9982L39.2075 24.0634C39.5752 23.9435 39.9346 23.7991 40.283 23.6312L43.2985 22.1402C43.6283 21.9686 43.9393 21.7631 44.2266 21.5271L45.7276 20.2304C45.9975 19.9901 46.2505 19.7315 46.4848 19.4564L48.0562 17.5567C48.2666 17.2803 48.4141 16.9613 48.4884 16.6219L48.7632 15.0606C48.8186 14.7134 48.8521 14.3632 48.8637 14.0119L48.8905 12.474C48.8764 12.1147 48.785 11.7627 48.6225 11.442L47.8552 10.008ZM47.4163 13.8343C47.3979 14.1865 47.3543 14.537 47.2856 14.883L46.9975 16.2969C46.9137 16.6357 46.7596 16.9531 46.5451 17.2283L45.1346 18.9338C44.8985 19.2095 44.642 19.4671 44.3673 19.7044L43.0271 20.8201C42.7355 21.0524 42.4225 21.2566 42.0923 21.4299L39.3248 22.8036C38.9755 22.9712 38.615 23.1145 38.2459 23.2325L35.5052 24.06C35.1936 24.1539 34.6776 24.2778 34.3526 24.3381L30.7106 25.0082C30.3138 25.0766 29.9132 25.1214 29.5111 25.1423L25.8255 25.2763C25.4905 25.2763 24.9377 25.2763 24.5993 25.2595L20.9841 25.0652C20.5715 25.0349 20.1609 24.9812 19.7544 24.9044L16.042 24.1271C15.707 24.06 15.1642 23.916 14.8392 23.8121L12.0683 22.9108C11.6767 22.7762 11.2931 22.6196 10.9191 22.4417L8.0008 20.991C7.63853 20.803 7.29226 20.5856 6.96549 20.341L5.53147 19.2253C5.21965 18.9752 4.9221 18.7079 4.64024 18.4245L2.99513 16.709C2.74972 16.4278 2.55985 16.1027 2.4356 15.7508L1.97993 14.3436C1.87281 13.9957 1.78996 13.6408 1.73199 13.2814L1.52761 11.9044C1.4909 11.5588 1.5333 11.2093 1.65158 10.8825L2.16756 9.65283C2.30659 9.32841 2.46549 9.01287 2.64333 8.70799L3.44075 7.40129C3.62797 7.10206 3.85322 6.82838 4.11085 6.58711L5.7325 5.18995C6.01841 4.95324 6.3232 4.74033 6.64385 4.55335L8.17838 3.70232C8.45312 3.55155 8.91884 3.33041 9.21369 3.20979L11.5892 2.2549C11.9543 2.11152 12.3309 1.99943 12.715 1.91984L15.0603 1.46753L16.2397 1.24974L19.0207 0.760567C19.4195 0.695494 19.8227 0.660774 20.2268 0.656702H23.0379C23.373 0.656702 23.9292 0.656702 24.2676 0.656702L27.0384 0.700258C27.4496 0.714297 27.8594 0.756839 28.2647 0.827578L31.116 1.37036L32.339 1.61495L34.7547 2.11418C35.1583 2.21442 35.5545 2.34203 35.9408 2.49613L38.4905 3.50129C38.8782 3.65756 39.2573 3.83427 39.6263 4.03067L41.2446 4.91521C41.5947 5.11524 41.9305 5.33913 42.2498 5.58531L44.0758 7.02603C44.3803 7.2768 44.6567 7.55991 44.9 7.87036L45.8784 9.19046C46.1039 9.50099 46.313 9.82308 46.5049 10.1554L47.2119 11.4186C47.3773 11.7363 47.4646 12.0889 47.4665 12.4472L47.4163 13.8343Z" fill="#1B76BB"/>
<path opacity="0.65" d="M46.515 10.2191C46.3231 9.88565 46.114 9.56244 45.8884 9.25077L44.9101 7.93067C44.6659 7.62098 44.3896 7.33796 44.0859 7.08634L42.2598 5.64897C41.9413 5.4017 41.6054 5.17775 41.2547 4.97886L39.6263 4.08763C39.2616 3.89389 38.8869 3.71942 38.5039 3.56495L35.9542 2.55979C35.5672 2.41159 35.1696 2.29287 34.7647 2.20464L32.349 1.70541C32.014 1.63505 31.4645 1.52448 31.1261 1.46082L28.2748 0.918039C27.8699 0.844003 27.4599 0.801435 27.0485 0.790719L24.2776 0.747162C23.9426 0.747162 23.3864 0.747162 23.048 0.747162H20.2369C19.8329 0.750113 19.4296 0.783715 19.0307 0.847678L16.2498 1.3402C15.9147 1.39716 15.3954 1.49433 15.0704 1.55799L12.725 2.00696C12.3414 2.08814 11.9649 2.20019 11.5993 2.34201L9.21705 3.28685C8.9222 3.40747 8.45648 3.62191 8.18174 3.77938L6.6472 4.62706C6.32583 4.81289 6.02094 5.02586 5.73586 5.26366L4.11086 6.63737C3.85271 6.8819 3.62745 7.15896 3.44076 7.4616L2.66009 8.7683C2.48226 9.07203 2.32337 9.38646 2.18432 9.70979L1.66834 10.9528C1.55017 11.2797 1.50778 11.6291 1.54437 11.9747L1.74875 13.3552C1.8071 13.7144 1.88994 14.0693 1.99669 14.4173L2.43561 15.8111C2.56498 16.1633 2.7606 16.4874 3.01189 16.766L4.657 18.4814C4.93797 18.7668 5.23557 19.0353 5.54823 19.2856L6.98225 20.4013C7.30386 20.6429 7.64449 20.858 8.00081 21.0446L10.9191 22.4954C11.2931 22.6732 11.6768 22.8298 12.0683 22.9644L14.8325 23.8691C15.1676 23.9763 15.7003 24.117 16.0353 24.1874L19.7477 24.9446C20.154 25.0231 20.5646 25.0768 20.9774 25.1054L24.6026 25.3265C24.9377 25.3466 25.4939 25.3533 25.8289 25.3265L29.5145 25.1925C29.9165 25.1727 30.3171 25.1291 30.714 25.0619L34.356 24.3918C34.691 24.3314 35.197 24.2041 35.5085 24.1103L38.2493 23.2794C38.6183 23.1626 38.9788 23.0204 39.3281 22.8539L42.0957 21.4768C42.4258 21.3035 42.7388 21.0994 43.0305 20.867L44.3707 19.7546C44.6437 19.5156 44.9001 19.2581 45.1379 18.984L46.5485 17.2786C46.7598 17.0043 46.9126 16.6896 46.9975 16.3539L47.2957 14.9366C47.3643 14.5917 47.408 14.2424 47.4263 13.8912L47.4866 12.5041C47.4838 12.146 47.3965 11.7936 47.232 11.4755L46.515 10.2191Z" fill="#1B76BB"/>
<defs>
<radialGradient id="paint0_radial_0_1" cx="0" cy="0" r="1" gradientUnits="userSpaceOnUse" gradientTransform="translate(47.0467 23.8101) scale(3.41468 2.9761)">
<stop offset="0.14" stop-color="white"/>
<stop offset="0.87" stop-color="#BDBDBD"/>
</radialGradient>
<radialGradient id="paint1_radial_0_1" cx="0" cy="0" r="1" gradientUnits="userSpaceOnUse" gradientTransform="translate(4.11557 23.2785) scale(3.34164 2.91244)">
<stop offset="0.14" stop-color="white"/>
<stop offset="0.87" stop-color="#BDBDBD"/>
</radialGradient>
<radialGradient id="paint2_radial_0_1" cx="0" cy="0" r="1" gradientUnits="userSpaceOnUse" gradientTransform="translate(34.3005 29.8419) scale(3.72145 3.24347)">
<stop offset="0.14" stop-color="white"/>
<stop offset="0.87" stop-color="#BDBDBD"/>
</radialGradient>
<radialGradient id="paint3_radial_0_1" cx="0" cy="0" r="1" gradientUnits="userSpaceOnUse" gradientTransform="translate(17.6302 29.5777) scale(3.72145 3.24347)">
<stop offset="0.14" stop-color="white"/>
<stop offset="0.87" stop-color="#BDBDBD"/>
</radialGradient>
<radialGradient id="paint4_radial_0_1" cx="0" cy="0" r="1" gradientUnits="userSpaceOnUse" gradientTransform="translate(6.79086 8.34395) scale(2.71348 2.36496)">
<stop offset="0.14" stop-color="white"/>
<stop offset="0.87" stop-color="#BDBDBD"/>
</radialGradient>
<radialGradient id="paint5_radial_0_1" cx="0" cy="0" r="1" gradientUnits="userSpaceOnUse" gradientTransform="translate(17.5194 4.61986) scale(2.918 2.54321)">
<stop offset="0.14" stop-color="white"/>
<stop offset="0.87" stop-color="#BDBDBD"/>
</radialGradient>
<radialGradient id="paint6_radial_0_1" cx="0" cy="0" r="1" gradientUnits="userSpaceOnUse" gradientTransform="translate(30.988 4.75673) scale(2.8486 2.48273)">
<stop offset="0.14" stop-color="white"/>
<stop offset="0.87" stop-color="#BDBDBD"/>
</radialGradient>
</defs>
</svg>
